<svg width="226" height="60" viewBox="0 0 226 60" fill="none" xmlns="http://www.w3.org/2000/svg">
<path d="M21.887 17.1323C15.8362 17.1323 10.3698 19.5268 6.40808 23.4152C2.44633 27.2824 0 32.6541 0 38.5661C0 50.4008 9.79613 59.9894 21.887 59.9894H43.7849V38.5661C43.7849 32.6541 41.3386 27.2824 37.3768 23.4152C33.4151 19.5268 27.9379 17.1323 21.887 17.1323ZM21.887 48.0911C16.5289 48.0911 12.1667 43.8319 12.1667 38.5767C12.1667 33.3216 16.5181 29.0623 21.887 29.0623C27.256 29.0623 31.6074 33.3216 31.6074 38.5767C31.6182 43.8213 27.2668 48.0911 21.887 48.0911Z" fill="url(#paint0_linear_5100_45)"/>
<path d="M59.9999 15.2357H49.4136V59.9999H59.9999V15.2357Z" fill="url(#paint1_linear_5100_45)"/>
<path d="M43.7849 0H26.8663C24.1169 0 21.8978 2.18259 21.8978 4.86315C21.8978 7.5543 24.1277 9.72629 26.8663 9.72629H43.7957V0H43.7849Z" fill="url(#paint2_linear_5100_45)"/>
<path d="M59.9999 0H49.4136V9.72629H59.9999V0Z" fill="url(#paint3_linear_5100_45)"/>
<path d="M96.845 42.5C93.2809 42.5 90.1847 41.8702 87.5566 40.6105C84.9644 39.3509 82.8043 37.7134 81.0763 35.6979C79.3842 33.6465 78.1061 31.4512 77.2421 29.1118C76.414 26.7365 76 24.4512 76 22.2558V21.0681C76 18.6568 76.432 16.2635 77.2961 13.8882C78.1601 11.4769 79.4562 9.29949 81.1843 7.35604C82.9483 5.4126 85.1264 3.86504 87.7186 2.71337C90.3107 1.52571 93.3529 0.931877 96.845 0.931877C100.301 0.931877 103.325 1.52571 105.917 2.71337C108.51 3.86504 110.67 5.4126 112.398 7.35604C114.162 9.29949 115.476 11.4769 116.34 13.8882C117.204 16.2635 117.636 18.6568 117.636 21.0681V22.2558C117.636 24.4512 117.204 26.7365 116.34 29.1118C115.512 31.4512 114.234 33.6465 112.506 35.6979C110.814 37.7134 108.654 39.3509 106.025 40.6105C103.433 41.8702 100.373 42.5 96.845 42.5ZM96.845 35.374C98.8611 35.374 100.661 35.0141 102.245 34.2943C103.865 33.5746 105.233 32.5848 106.349 31.3252C107.502 30.0296 108.366 28.572 108.942 26.9524C109.554 25.2969 109.86 23.5514 109.86 21.7159C109.86 19.7365 109.554 17.919 108.942 16.2635C108.366 14.608 107.502 13.1684 106.349 11.9447C105.233 10.7211 103.865 9.76735 102.245 9.08355C100.625 8.39974 98.8251 8.05784 96.845 8.05784C94.8289 8.05784 93.0108 8.39974 91.3908 9.08355C89.7707 9.76735 88.3846 10.7211 87.2326 11.9447C86.1165 13.1684 85.2525 14.608 84.6404 16.2635C84.0644 17.919 83.7764 19.7365 83.7764 21.7159C83.7764 23.5514 84.0644 25.2969 84.6404 26.9524C85.2525 28.572 86.1165 30.0296 87.2326 31.3252C88.3846 32.5848 89.7707 33.5746 91.3908 34.2943C93.0108 35.0141 94.8289 35.374 96.845 35.374Z" fill="white"/>
<path d="M124.453 41.4743V12.1607H130.393V24.5771H130.231C130.231 20.3663 131.131 17.1812 132.931 15.0219C134.732 12.8625 137.378 11.7828 140.87 11.7828H141.95V18.3149H139.898C137.378 18.3149 135.416 18.9987 134.012 20.3663C132.643 21.6979 131.959 23.6414 131.959 26.1967V41.4743H124.453Z" fill="white"/>
<path d="M164.199 42.446C161.786 42.446 159.662 41.9422 157.826 40.9344C155.99 39.8907 154.55 38.3792 153.506 36.3997C152.462 34.4203 151.886 32.027 151.778 29.2198H152.912V41.4743H146.972V2.06555H154.478V21.7699L152.48 24.847C152.624 21.8239 153.218 19.3046 154.262 17.2892C155.342 15.2738 156.782 13.7622 158.582 12.7545C160.382 11.7468 162.417 11.2429 164.685 11.2429C166.701 11.2429 168.537 11.6208 170.193 12.3766C171.849 13.1324 173.271 14.1941 174.459 15.5617C175.647 16.8933 176.547 18.4589 177.159 20.2584C177.807 22.0578 178.131 24.0193 178.131 26.1427V27.2763C178.131 29.3997 177.807 31.3792 177.159 33.2147C176.511 35.0501 175.575 36.6697 174.351 38.0733C173.127 39.4409 171.651 40.5206 169.923 41.3123C168.231 42.0681 166.323 42.446 164.199 42.446ZM162.525 36.1298C164.145 36.1298 165.549 35.7339 166.737 34.9422C167.961 34.1144 168.915 32.9987 169.599 31.5951C170.283 30.1915 170.625 28.572 170.625 26.7365C170.625 24.865 170.283 23.2455 169.599 21.8779C168.915 20.5103 167.961 19.4486 166.737 18.6928C165.549 17.937 164.145 17.5591 162.525 17.5591C161.048 17.5591 159.68 17.883 158.42 18.5308C157.196 19.1787 156.188 20.1324 155.396 21.392C154.64 22.6517 154.262 24.1632 154.262 25.9267V28.0861C154.262 29.7776 154.658 31.2172 155.45 32.4049C156.242 33.5925 157.268 34.5103 158.528 35.1581C159.788 35.8059 161.12 36.1298 162.525 36.1298Z" fill="white"/>
<path d="M186.135 41.4743V12.1607H193.642V41.4743H186.135ZM182.031 17.7751V12.1607H193.642V17.7751H182.031ZM188.89 8.65167C187.414 8.65167 186.315 8.27378 185.595 7.518C184.911 6.72622 184.569 5.7545 184.569 4.60283C184.569 3.37918 184.911 2.38946 185.595 1.63368C186.315 0.877892 187.414 0.5 188.89 0.5C190.366 0.5 191.446 0.877892 192.13 1.63368C192.814 2.38946 193.156 3.37918 193.156 4.60283C193.156 5.7545 192.814 6.72622 192.13 7.518C191.446 8.27378 190.366 8.65167 188.89 8.65167Z" fill="white"/>
<path d="M220.06 41.4743V32.7828H218.818V23.1195C218.818 21.428 218.404 20.1684 217.576 19.3406C216.748 18.5129 215.469 18.099 213.741 18.099C212.841 18.099 211.761 18.117 210.501 18.153C209.241 18.1889 207.963 18.2429 206.667 18.3149C205.407 18.3509 204.273 18.4049 203.265 18.4769V12.1067C204.093 12.0347 205.029 11.9627 206.073 11.8907C207.117 11.8188 208.179 11.7828 209.259 11.7828C210.375 11.7468 211.419 11.7288 212.391 11.7288C215.415 11.7288 217.918 12.1247 219.898 12.9165C221.914 13.7082 223.426 14.9499 224.434 16.6414C225.478 18.3329 226 20.5463 226 23.2815V41.4743H220.06ZM210.609 42.2301C208.485 42.2301 206.613 41.8522 204.993 41.0964C203.409 40.3406 202.167 39.2609 201.267 37.8573C200.403 36.4537 199.971 34.7622 199.971 32.7828C199.971 30.6234 200.493 28.8599 201.537 27.4923C202.617 26.1247 204.111 25.099 206.019 24.4152C207.963 23.7314 210.231 23.3895 212.823 23.3895H219.628V27.8702H212.715C210.987 27.8702 209.655 28.3021 208.719 29.1658C207.819 29.9936 207.369 31.0733 207.369 32.4049C207.369 33.7365 207.819 34.8162 208.719 35.644C209.655 36.4717 210.987 36.8856 212.715 36.8856C213.759 36.8856 214.713 36.7057 215.577 36.3458C216.478 35.9499 217.216 35.3021 217.792 34.4023C218.404 33.4666 218.746 32.2069 218.818 30.6234L220.654 32.7288C220.474 34.7802 219.97 36.5077 219.142 37.9113C218.35 39.3149 217.234 40.3946 215.793 41.1504C214.389 41.8702 212.661 42.2301 210.609 42.2301Z" fill="white"/>
<path d="M76.336 59.5L79.492 50.74H81.484L84.736 59.5H83.524L80.584 51.508L81.16 51.796H79.744L80.356 51.508L77.512 59.5H76.336ZM78.22 56.884L78.616 55.828H82.396L82.792 56.884H78.22ZM95.9663 59.5V50.74H97.1423V59.5H95.9663ZM120.71 59.5L123.866 50.74H125.858L129.11 59.5H127.898L124.958 51.508L125.534 51.796H124.118L124.73 51.508L121.886 59.5H120.71ZM122.594 56.884L122.99 55.828H126.77L127.166 56.884H122.594ZM143.947 59.716C143.267 59.716 142.651 59.604 142.099 59.38C141.547 59.156 141.071 58.84 140.671 58.432C140.279 58.024 139.975 57.544 139.759 56.992C139.543 56.432 139.435 55.824 139.435 55.168V54.904C139.435 54.344 139.531 53.804 139.723 53.284C139.923 52.756 140.207 52.284 140.575 51.868C140.951 51.444 141.407 51.112 141.943 50.872C142.479 50.624 143.083 50.5 143.755 50.5C144.483 50.5 145.131 50.64 145.699 50.92C146.267 51.192 146.723 51.576 147.067 52.072C147.411 52.56 147.611 53.128 147.667 53.776H146.467C146.411 53.288 146.251 52.884 145.987 52.564C145.723 52.236 145.395 51.992 145.003 51.832C144.619 51.664 144.203 51.58 143.755 51.58C143.299 51.58 142.879 51.664 142.495 51.832C142.111 51.992 141.779 52.224 141.499 52.528C141.227 52.832 141.015 53.196 140.863 53.62C140.711 54.044 140.635 54.52 140.635 55.048C140.635 55.648 140.715 56.176 140.875 56.632C141.043 57.08 141.275 57.456 141.571 57.76C141.867 58.056 142.215 58.28 142.615 58.432C143.023 58.584 143.467 58.66 143.947 58.66C144.627 58.66 145.223 58.524 145.735 58.252C146.255 57.972 146.647 57.612 146.911 57.172L146.479 58.6V55.996H147.583V58.084C147.191 58.596 146.687 58.996 146.071 59.284C145.455 59.572 144.747 59.716 143.947 59.716ZM143.635 56.236V55.252H148.327V56.236H143.635ZM159.608 59.5V50.74H160.784V59.5H159.608ZM160.544 59.5V58.444H164.792V59.5H160.544ZM160.544 55.576V54.52H164.42V55.576H160.544ZM160.544 51.796V50.74H164.672V51.796H160.544ZM176.403 59.5V50.74H178.323L182.775 58.444H183.159L182.919 58.66V50.74H184.047V59.5H182.103L177.651 51.796H177.267L177.507 51.58V59.5H176.403ZM199.991 59.716C199.191 59.716 198.507 59.576 197.939 59.296C197.379 59.016 196.927 58.652 196.583 58.204C196.239 57.756 195.987 57.272 195.827 56.752C195.667 56.224 195.587 55.716 195.587 55.228V54.964C195.587 54.436 195.667 53.908 195.827 53.38C195.995 52.852 196.251 52.372 196.595 51.94C196.939 51.508 197.387 51.16 197.939 50.896C198.491 50.632 199.151 50.5 199.919 50.5C200.703 50.5 201.375 50.636 201.935 50.908C202.495 51.18 202.939 51.56 203.267 52.048C203.595 52.536 203.795 53.112 203.867 53.776H202.667C202.603 53.28 202.443 52.872 202.187 52.552C201.931 52.224 201.607 51.98 201.215 51.82C200.831 51.66 200.399 51.58 199.919 51.58C199.399 51.58 198.943 51.672 198.551 51.856C198.159 52.032 197.831 52.284 197.567 52.612C197.311 52.932 197.115 53.304 196.979 53.728C196.851 54.152 196.787 54.612 196.787 55.108C196.787 55.58 196.851 56.028 196.979 56.452C197.115 56.876 197.315 57.252 197.579 57.58C197.851 57.908 198.187 58.168 198.587 58.36C198.987 58.544 199.455 58.636 199.991 58.636C200.743 58.636 201.375 58.448 201.887 58.072C202.399 57.696 202.711 57.152 202.823 56.44H204.023C203.943 57.04 203.739 57.588 203.411 58.084C203.091 58.58 202.643 58.976 202.067 59.272C201.499 59.568 200.807 59.716 199.991 59.716ZM216.983 56.092L214.199 50.74H215.423L217.775 55.324L217.319 55.192H218.735L218.255 55.324L220.463 50.74H221.615L218.999 56.092H216.983ZM217.415 59.5V55.852H218.567V59.5H217.415Z" fill="white"/>
<defs>
<linearGradient id="paint0_linear_5100_45" x1="44.6507" y1="20.9588" x2="-1.01943" y2="24.6282" gradientUnits="userSpaceOnUse">
<stop stop-color="#FF6633"/>
<stop offset="1" stop-color="#6D2CF9"/>
</linearGradient>
<linearGradient id="paint1_linear_5100_45" x1="60.2093" y1="19.2325" x2="49.0997" y2="19.4391" gradientUnits="userSpaceOnUse">
<stop stop-color="#FF6633"/>
<stop offset="1" stop-color="#6D2CF9"/>
</linearGradient>
<linearGradient id="paint2_linear_5100_45" x1="44.2287" y1="0.868419" x2="21.9393" y2="4.81498" gradientUnits="userSpaceOnUse">
<stop stop-color="#FF6633"/>
<stop offset="1" stop-color="#6D2CF9"/>
</linearGradient>
<linearGradient id="paint3_linear_5100_45" x1="60.2093" y1="0.868419" x2="49.1767" y2="1.81278" gradientUnits="userSpaceOnUse">
<stop stop-color="#FF6633"/>
<stop offset="1" stop-color="#6D2CF9"/>
</linearGradient>
</defs>
</svg>
